<svg xmlns="http://www.w3.org/2000/svg" viewBox="0 0 1000 129.211">
  <path d="M249.032 116.044c-6.838 0-13.118-1.222-18.845-3.663-5.727-2.44-10.721-5.88-14.983-10.321-4.261-4.439-7.547-9.677-9.855-15.716-2.31-6.036-3.463-12.652-3.463-19.844s1.153-13.761 3.463-19.71c2.307-5.948 5.57-11.121 9.789-15.516 4.216-4.395 9.19-7.791 14.916-10.188 5.727-2.397 12.053-3.596 18.978-3.596 7.635 0 14.517 1.51 20.643 4.528 6.126 3.02 11.165 7.258 15.117 12.719 3.95 5.46 6.369 11.876 7.258 19.244h-17.048c-1.065-7.191-3.951-12.719-8.656-16.58-4.707-3.863-10.434-5.794-17.18-5.794-5.95 0-11.144 1.421-15.583 4.262-4.44 2.842-7.903 6.858-10.388 12.053-2.487 5.194-3.73 11.343-3.73 18.445 0 7.282 1.243 13.564 3.73 18.845 2.485 5.284 5.993 9.39 10.521 12.32 4.528 2.93 9.723 4.395 15.583 4.395 6.57 0 12.206-1.932 16.913-5.794 4.706-3.862 7.679-9.343 8.924-16.448h17.18c-1.066 7.282-3.575 13.674-7.525 19.178-3.951 5.506-8.99 9.745-15.116 12.719-6.126 2.976-13.008 4.462-20.643 4.462ZM352.627 116.044c-6.926 0-13.319-1.199-19.178-3.596-5.86-2.397-10.944-5.814-15.25-10.255-4.307-4.439-7.637-9.7-9.988-15.782-2.354-6.08-3.53-12.763-3.53-20.044 0-9.676 2.042-18.18 6.127-25.504 4.083-7.325 9.743-13.052 16.98-17.18 7.236-4.129 15.47-6.193 24.706-6.193 9.41 0 17.733 2.064 24.971 6.193 7.235 4.128 12.896 9.878 16.98 17.246 4.083 7.371 6.126 15.895 6.126 25.571 0 7.282-1.177 13.94-3.529 19.978-2.353 6.038-5.683 11.276-9.988 15.715-4.308 4.44-9.39 7.858-15.25 10.255-5.859 2.397-12.252 3.596-19.178 3.596Zm-.133-14.117c6.036 0 11.34-1.51 15.915-4.529 4.571-3.017 8.145-7.212 10.72-12.585 2.575-5.371 3.863-11.564 3.863-18.579 0-6.926-1.265-12.985-3.795-18.18-2.531-5.193-6.083-9.232-10.655-12.119-4.574-2.884-9.922-4.328-16.048-4.328-6.04 0-11.344 1.444-15.916 4.328-4.574 2.887-8.103 6.905-10.588 12.053-2.486 5.15-3.729 11.233-3.729 18.246 0 7.104 1.266 13.318 3.796 18.645 2.53 5.328 6.08 9.502 10.655 12.52 4.571 3.019 9.832 4.528 15.782 4.528ZM416.349 114.712v-95.89h40.487c6.836 0 12.786 1.155 17.847 3.462 5.06 2.31 8.944 5.55 11.653 9.723 2.707 4.174 4.062 9.056 4.062 14.65 0 5.506-1.355 10.344-4.062 14.516-2.71 4.175-6.593 7.415-11.653 9.722-5.061 2.31-11.01 3.463-17.847 3.463h-26.902V61.173h26.37c5.593 0 9.875-1.286 12.852-3.862 2.973-2.574 4.46-6.126 4.46-10.654s-1.464-8.012-4.394-10.455c-2.93-2.441-7.237-3.663-12.918-3.663h-22.641v82.173h-17.314Zm54.87 0-42.75-49.01h19.444l47.28 49.01H471.22ZM508.755 114.712v-95.89h17.313v95.89h-17.313Zm8.257-82.173V18.822h59.266v13.717h-59.266Zm0 39.555V58.643h56.07v13.451h-56.07Zm0 42.618v-13.718h60.731v13.718h-60.73ZM630.498 61.125l15.897-42.236h5.397l-15.193 42.236h-6.1Zm8.037-16.836h22.643v5.162h-22.643V44.29Zm24.637 16.836-15.193-42.236h5.69l15.956 42.236h-6.453ZM686.108 61.712c-3.91 0-7.02-.86-9.327-2.582-2.308-1.72-3.618-4.144-3.93-7.274h5.631c.273 1.722 1.066 3.041 2.376 3.96 1.31.92 3.1 1.379 5.368 1.379 1.994 0 3.52-.352 4.575-1.056 1.056-.704 1.584-1.701 1.584-2.992 0-.939-.303-1.73-.91-2.376-.606-.645-1.788-1.182-3.548-1.613l-4.81-1.115c-3.012-.742-5.25-1.847-6.717-3.314-1.466-1.466-2.2-3.275-2.2-5.426 0-2.698 1.007-4.82 3.021-6.365 2.014-1.544 4.78-2.317 8.3-2.317 3.481 0 6.286.783 8.419 2.347 2.13 1.564 3.333 3.754 3.607 6.57h-5.631c-.235-1.408-.91-2.494-2.024-3.256-1.114-.763-2.63-1.144-4.546-1.144-1.8 0-3.178.323-4.136.968-.958.645-1.437 1.535-1.437 2.669 0 .939.361 1.721 1.085 2.346.723.626 1.926 1.154 3.608 1.584l4.927 1.232c2.854.704 5.006 1.848 6.453 3.432 1.446 1.584 2.17 3.49 2.17 5.72 0 2.698-1.046 4.81-3.138 6.335-2.093 1.525-5.015 2.288-8.77 2.288ZM715.672 61.712c-3.91 0-7.02-.86-9.327-2.582-2.308-1.72-3.618-4.144-3.93-7.274h5.631c.273 1.722 1.065 3.041 2.376 3.96 1.31.92 3.1 1.379 5.367 1.379 1.995 0 3.52-.352 4.576-1.056 1.056-.704 1.584-1.701 1.584-2.992 0-.939-.304-1.73-.91-2.376-.606-.645-1.788-1.182-3.548-1.613l-4.81-1.115c-3.013-.742-5.25-1.847-6.717-3.314-1.467-1.466-2.2-3.275-2.2-5.426 0-2.698 1.006-4.82 3.021-6.365 2.014-1.544 4.78-2.317 8.3-2.317 3.481 0 6.286.783 8.418 2.347 2.131 1.564 3.334 3.754 3.608 6.57h-5.631c-.235-1.408-.91-2.494-2.024-3.256-1.114-.763-2.63-1.144-4.547-1.144-1.799 0-3.177.323-4.135.968-.959.645-1.437 1.535-1.437 2.669 0 .939.36 1.721 1.085 2.346.723.626 1.926 1.154 3.607 1.584l4.928 1.232c2.854.704 5.006 1.848 6.453 3.432 1.446 1.584 2.17 3.49 2.17 5.72 0 2.698-1.046 4.81-3.138 6.335-2.093 1.525-5.015 2.288-8.77 2.288ZM747.994 61.712c-3.051 0-5.73-.675-8.037-2.024-2.308-1.35-4.106-3.207-5.397-5.573-1.29-2.366-1.935-5.054-1.935-8.066 0-3.05.654-5.729 1.965-8.037a14.248 14.248 0 0 1 5.396-5.426c2.288-1.31 4.957-1.965 8.008-1.965 3.088 0 5.787.655 8.095 1.965 2.307 1.31 4.096 3.12 5.367 5.426 1.27 2.308 1.907 4.987 1.907 8.037 0 3.012-.636 5.7-1.907 8.066-1.271 2.366-3.06 4.224-5.367 5.573-2.308 1.349-5.007 2.024-8.095 2.024Zm0-4.987c1.837 0 3.431-.449 4.78-1.349 1.35-.9 2.414-2.15 3.197-3.754.782-1.603 1.173-3.48 1.173-5.632 0-3.206-.85-5.738-2.551-7.596-1.701-1.857-3.901-2.787-6.6-2.787-2.66 0-4.84.939-6.54 2.816s-2.552 4.4-2.552 7.567c0 2.151.381 4.029 1.144 5.631.762 1.605 1.837 2.856 3.226 3.755 1.388.9 2.963 1.35 4.723 1.35ZM782.779 61.712c-2.855 0-5.397-.675-7.626-2.024-2.229-1.35-3.98-3.198-5.25-5.544-1.272-2.346-1.907-5.025-1.907-8.036s.635-5.68 1.907-8.008c1.27-2.326 3.021-4.154 5.25-5.485 2.229-1.328 4.752-1.994 7.567-1.994 2.385 0 4.517.45 6.395 1.35 1.876.9 3.42 2.15 4.634 3.754 1.211 1.604 1.994 3.5 2.346 5.69h-5.749c-.391-1.76-1.242-3.168-2.552-4.224s-2.962-1.584-4.957-1.584c-1.72 0-3.226.431-4.516 1.29-1.291.861-2.288 2.074-2.992 3.638-.704 1.564-1.056 3.422-1.056 5.573 0 2.111.352 3.97 1.056 5.572.704 1.604 1.7 2.845 2.992 3.725 1.29.88 2.815 1.32 4.575 1.32 1.915 0 3.549-.518 4.898-1.554 1.35-1.036 2.22-2.435 2.61-4.195h5.75c-.392 2.152-1.203 4.029-2.435 5.632-1.232 1.604-2.786 2.855-4.663 3.754-1.877.9-3.97 1.35-6.277 1.35ZM802.254 25.341v-6.863H809v6.863h-6.746Zm.294 35.784V31.208h6.1v29.917h-6.1ZM825.72 61.712c-3.051 0-5.476-.753-7.274-2.259-1.8-1.505-2.699-3.549-2.699-6.13 0-2.66.948-4.76 2.845-6.306 1.896-1.545 4.624-2.59 8.183-3.138l9.855-1.584v4.282l-8.916 1.408c-1.994.313-3.49.841-4.488 1.584-.997.743-1.496 1.818-1.496 3.226 0 1.37.46 2.396 1.379 3.08.919.684 2.259 1.026 4.019 1.026 2.346 0 4.291-.566 5.836-1.7 1.545-1.135 2.317-2.562 2.317-4.283l.763 4.34c-.704 2.074-1.956 3.667-3.755 4.782-1.799 1.114-3.989 1.672-6.57 1.672Zm10.324-.587a12.964 12.964 0 0 1-.381-2.464c-.059-.899-.089-1.994-.089-3.285h-.292V41.121c0-1.915-.48-3.352-1.438-4.311-.959-.958-2.474-1.437-4.546-1.437-1.994 0-3.589.391-4.78 1.173-1.194.783-1.888 1.897-2.083 3.343h-5.808c.273-2.815 1.545-5.064 3.813-6.746 2.268-1.68 5.299-2.522 9.093-2.522 3.91 0 6.843.91 8.799 2.728 1.954 1.818 2.932 4.488 2.932 8.007v14.02c0 .9.06 1.819.177 2.757.117.939.293 1.936.528 2.992h-5.925ZM845.664 36.077v-4.87h20.53v4.87h-20.53Zm16.073 25.635c-3.481 0-6.033-.812-7.655-2.435-1.624-1.622-2.435-4.018-2.435-7.186V24.344l6.042-2.288V52.15c0 1.564.41 2.718 1.232 3.46.821.744 2.15 1.115 3.99 1.115.703 0 1.328-.058 1.876-.176a8.741 8.741 0 0 0 1.408-.41v4.927c-.43.195-1.036.352-1.818.47-.783.117-1.663.176-2.64.176ZM872.296 25.341v-6.863h6.746v6.863h-6.746Zm.293 35.784V31.208h6.1v29.917h-6.1ZM900.865 61.712c-3.051 0-5.73-.675-8.037-2.024-2.308-1.35-4.106-3.207-5.397-5.573-1.29-2.366-1.936-5.054-1.936-8.066 0-3.05.655-5.729 1.965-8.037a14.248 14.248 0 0 1 5.397-5.426c2.288-1.31 4.957-1.965 8.008-1.965 3.088 0 5.787.655 8.095 1.965 2.307 1.31 4.096 3.12 5.367 5.426 1.27 2.308 1.907 4.987 1.907 8.037 0 3.012-.636 5.7-1.907 8.066-1.271 2.366-3.06 4.224-5.367 5.573-2.308 1.349-5.007 2.024-8.095 2.024Zm0-4.987c1.837 0 3.431-.449 4.78-1.349 1.35-.9 2.414-2.15 3.197-3.754.782-1.603 1.173-3.48 1.173-5.632 0-3.206-.85-5.738-2.551-7.596-1.702-1.857-3.902-2.787-6.6-2.787-2.66 0-4.84.939-6.54 2.816s-2.552 4.4-2.552 7.567c0 2.151.381 4.029 1.144 5.631.762 1.605 1.837 2.856 3.226 3.755 1.388.9 2.962 1.35 4.722 1.35ZM923.214 61.125V31.208h5.807v7.04h.293v22.877h-6.1Zm21.235 0v-19.24c0-2.073-.519-3.618-1.555-4.635s-2.572-1.525-4.605-1.525c-1.76 0-3.314.391-4.663 1.173a8.379 8.379 0 0 0-3.168 3.226c-.763 1.37-1.144 2.992-1.144 4.87l-.762-7.157c.977-2.23 2.483-3.99 4.517-5.28 2.033-1.29 4.4-1.936 7.098-1.936 3.205 0 5.728.9 7.567 2.699 1.838 1.799 2.757 4.185 2.757 7.156v20.649h-6.042ZM632.962 114.527V72.291h9.62l14.079 40.711h-3.168l13.961-40.71h9.738v42.235h-6.159V74.814h.938l-13.61 39.713h-6.921l-13.61-39.361h.939v39.361h-5.807ZM694.732 115.114c-3.051 0-5.476-.753-7.274-2.259-1.8-1.504-2.699-3.548-2.699-6.13 0-2.659.948-4.76 2.845-6.306 1.896-1.544 4.624-2.59 8.183-3.138l9.855-1.584v4.282l-8.916 1.408c-1.994.314-3.49.842-4.488 1.584-.997.743-1.496 1.819-1.496 3.227 0 1.369.46 2.395 1.379 3.08.919.684 2.258 1.026 4.018 1.026 2.347 0 4.292-.567 5.837-1.701 1.545-1.134 2.317-2.561 2.317-4.283l.763 4.341c-.704 2.074-1.956 3.666-3.755 4.781-1.799 1.115-3.989 1.672-6.57 1.672Zm10.324-.587a12.964 12.964 0 0 1-.381-2.464c-.059-.899-.089-1.994-.089-3.285h-.292V94.524c0-1.916-.48-3.353-1.438-4.312-.959-.958-2.474-1.437-4.546-1.437-1.994 0-3.588.391-4.78 1.173-1.194.783-1.888 1.898-2.083 3.344h-5.808c.273-2.816 1.545-5.064 3.813-6.746 2.268-1.681 5.299-2.523 9.093-2.523 3.91 0 6.843.91 8.799 2.728 1.954 1.819 2.932 4.488 2.932 8.008v14.02c0 .9.06 1.818.177 2.756.117.94.293 1.936.528 2.992h-5.925ZM719.252 114.527V84.61h5.807v7.04h.293v22.877h-6.1Zm21.235 0v-19.24c0-2.073-.519-3.617-1.555-4.635-1.036-1.016-2.572-1.525-4.605-1.525-1.76 0-3.314.391-4.663 1.173a8.379 8.379 0 0 0-3.168 3.227c-.763 1.369-1.144 2.991-1.144 4.869l-.762-7.157c.977-2.23 2.483-3.99 4.517-5.28 2.033-1.29 4.4-1.936 7.098-1.936 3.205 0 5.728.9 7.567 2.7 1.838 1.798 2.757 4.184 2.757 7.156v20.648h-6.043ZM763.364 115.114c-3.05 0-5.476-.753-7.274-2.259-1.8-1.504-2.699-3.548-2.699-6.13 0-2.659.948-4.76 2.846-6.306 1.896-1.544 4.623-2.59 8.183-3.138l9.855-1.584v4.282l-8.917 1.408c-1.994.314-3.49.842-4.487 1.584-.998.743-1.497 1.819-1.497 3.227 0 1.369.46 2.395 1.38 3.08.918.684 2.258 1.026 4.018 1.026 2.346 0 4.291-.567 5.836-1.701 1.545-1.134 2.318-2.561 2.318-4.283l.762 4.341c-.704 2.074-1.956 3.666-3.754 4.781-1.8 1.115-3.99 1.672-6.57 1.672Zm10.324-.587a12.964 12.964 0 0 1-.381-2.464c-.059-.899-.088-1.994-.088-3.285h-.293V94.524c0-1.916-.48-3.353-1.438-4.312-.958-.958-2.474-1.437-4.546-1.437-1.994 0-3.588.391-4.78 1.173-1.194.783-1.888 1.898-2.083 3.344h-5.807c.273-2.816 1.544-5.064 3.812-6.746 2.268-1.681 5.299-2.523 9.093-2.523 3.91 0 6.843.91 8.799 2.728 1.955 1.819 2.933 4.488 2.933 8.008v14.02c0 .9.059 1.818.176 2.756.117.94.293 1.936.528 2.992h-5.925ZM800.202 127.14c-3.754 0-6.853-.851-9.297-2.552-2.445-1.701-3.922-3.96-4.43-6.776h5.75c.39 1.291 1.26 2.307 2.61 3.05 1.35.743 3.158 1.115 5.426 1.115 2.934 0 5.123-.724 6.57-2.17 1.447-1.447 2.17-3.599 2.17-6.453v-6.453l.529.118c-.587 2.268-1.858 4.057-3.813 5.367-1.956 1.31-4.303 1.965-7.04 1.965-2.62 0-4.927-.625-6.922-1.877-1.994-1.25-3.54-3-4.634-5.25-1.095-2.248-1.643-4.878-1.643-7.89 0-3.05.567-5.729 1.702-8.037 1.134-2.307 2.727-4.086 4.78-5.338 2.054-1.25 4.449-1.877 7.187-1.877 2.815 0 5.151.675 7.01 2.024 1.857 1.35 3.04 3.256 3.548 5.72l-.469.058V84.61h5.808v28.685c0 4.302-1.32 7.685-3.96 10.149-2.64 2.464-6.268 3.696-10.882 3.696Zm.294-17.716c2.62 0 4.722-.919 6.306-2.757 1.584-1.838 2.376-4.36 2.376-7.568 0-3.128-.792-5.592-2.376-7.391-1.584-1.798-3.706-2.698-6.365-2.698s-4.772.909-6.335 2.727c-1.565 1.819-2.346 4.332-2.346 7.538 0 3.13.791 5.603 2.375 7.42 1.584 1.82 3.705 2.729 6.365 2.729ZM837.217 115.114c-3.012 0-5.66-.664-7.948-1.995-2.288-1.328-4.077-3.167-5.368-5.514-1.29-2.346-1.935-5.044-1.935-8.095 0-3.089.634-5.797 1.906-8.124a13.517 13.517 0 0 1 5.368-5.426c2.307-1.291 4.946-1.936 7.919-1.936 2.893 0 5.405.616 7.538 1.848 2.13 1.231 3.773 2.943 4.927 5.132 1.153 2.191 1.73 4.791 1.73 7.802 0 .47-.01.91-.029 1.32-.02.411-.069.832-.146 1.261h-25.107v-4.575h20.825l-1.526 1.818c0-3.206-.724-5.65-2.17-7.332-1.447-1.681-3.461-2.523-6.042-2.523-2.778 0-4.977.95-6.6 2.846-1.623 1.897-2.434 4.526-2.434 7.89 0 3.402.81 6.062 2.434 7.977 1.623 1.917 3.881 2.875 6.776 2.875 1.76 0 3.285-.361 4.575-1.086 1.29-.723 2.249-1.789 2.874-3.197h5.75c-.979 2.816-2.631 5.026-4.957 6.629-2.327 1.604-5.114 2.405-8.36 2.405ZM858.276 114.527V84.61h5.808v7.04h.293v22.877h-6.1Zm20.18 0V94.993c0-2.033-.47-3.52-1.408-4.458-.939-.939-2.288-1.408-4.048-1.408-1.642 0-3.119.381-4.43 1.144a8.121 8.121 0 0 0-3.078 3.168c-.744 1.349-1.115 2.943-1.115 4.78l-.763-6.98c.978-2.23 2.454-3.99 4.43-5.28 1.973-1.29 4.193-1.936 6.657-1.936 2.972 0 5.348.861 7.128 2.582 1.779 1.721 2.669 3.988 2.669 6.804v21.118h-6.042Zm20.18 0V94.993c0-2.033-.48-3.52-1.438-4.458-.959-.939-2.317-1.408-4.077-1.408-1.604 0-3.06.381-4.37 1.144a8.337 8.337 0 0 0-3.11 3.168c-.762 1.349-1.143 2.943-1.143 4.78l-1.232-6.98c1.016-2.23 2.552-3.99 4.605-5.28 2.053-1.29 4.35-1.936 6.893-1.936 3.01 0 5.416.871 7.215 2.611 1.798 1.74 2.698 4.058 2.698 6.951v20.942h-6.042ZM926.5 115.114c-3.013 0-5.662-.664-7.95-1.995-2.287-1.328-4.076-3.167-5.367-5.514-1.29-2.346-1.935-5.044-1.935-8.095 0-3.089.634-5.797 1.906-8.124a13.517 13.517 0 0 1 5.367-5.426c2.308-1.291 4.947-1.936 7.92-1.936 2.893 0 5.405.616 7.537 1.848 2.131 1.231 3.774 2.943 4.928 5.132 1.153 2.191 1.73 4.791 1.73 7.802 0 .47-.01.91-.029 1.32-.02.411-.069.832-.146 1.261h-25.107v-4.575h20.824l-1.525 1.818c0-3.206-.724-5.65-2.17-7.332-1.448-1.681-3.461-2.523-6.042-2.523-2.778 0-4.978.95-6.6 2.846-1.623 1.897-2.434 4.526-2.434 7.89 0 3.402.81 6.062 2.434 7.977 1.622 1.917 3.881 2.875 6.776 2.875 1.76 0 3.285-.361 4.575-1.086 1.29-.723 2.249-1.789 2.874-3.197h5.75c-.979 2.816-2.631 5.026-4.958 6.629-2.327 1.604-5.113 2.405-8.359 2.405ZM947.558 114.527V84.61h5.807v7.04h.293v22.877h-6.1Zm21.235 0v-19.24c0-2.073-.52-3.617-1.555-4.635-1.036-1.016-2.572-1.525-4.605-1.525-1.76 0-3.314.391-4.663 1.173a8.379 8.379 0 0 0-3.168 3.227c-.763 1.369-1.144 2.991-1.144 4.869l-.763-7.157c.978-2.23 2.484-3.99 4.518-5.28 2.033-1.29 4.399-1.936 7.098-1.936 3.205 0 5.728.9 7.566 2.7 1.838 1.798 2.758 4.184 2.758 7.156v20.648h-6.043ZM979.469 89.48v-4.87H1000v4.87h-20.531Zm16.073 25.634c-3.481 0-6.033-.811-7.655-2.434-1.623-1.623-2.435-4.019-2.435-7.187V77.748l6.042-2.288v30.093c0 1.565.41 2.719 1.232 3.461.821.744 2.15 1.115 3.99 1.115.703 0 1.328-.059 1.876-.176a8.741 8.741 0 0 0 1.408-.41v4.927c-.43.195-1.036.352-1.818.47-.783.117-1.663.175-2.64.175ZM97.916 49.247l14.617 45.17-38.226 27.398 9.895 7.189 42.033-30.127-19.879-61.22-32.061-.025 3.769 11.602 19.852.013z" style="fill:#e26744"/>
  <path d="m136.028 68.053-15.665-49.292-64.354-.022-9.945 30.473 12.269.009 6.181-18.873 47.372.067 14.247 44.827 9.895-7.189z" style="fill:#e26744"/>
  <path d="M50.7 11.641h47.191L94.108 0 42.229.002 22.465 60.794 48.37 79.643l3.796-11.593L36.12 56.396 50.7 11.641z" style="fill:#e26744"/>
  <path d="M68.169 79.682 52.102 91.355l-38.391-27.97L28.54 18.729l-12.237.016L0 67.843l52.081 37.845 25.951-18.84-9.863-7.166z" style="fill:#e26744"/>
  <path d="m94.047 60.883-9.87 7.17 6.13 18.879-38.447 27.867-37.869-27.888-3.78 11.633 41.644 30.667 52.077-37.829-9.885-30.499z" style="fill:#e26744"/>
</svg>

